<?xml version="1.0" encoding="UTF-8"?>
<svg xmlns="http://www.w3.org/2000/svg" viewBox="0 0 1260 1600" role="img" aria-label="CAPCUT PRO product cover">
  
    <defs>
      <linearGradient id="bgposter9" x1="0" y1="0" x2="1" y2="1">
        <stop offset="0%" stop-color="#0f141b" />
        <stop offset="56%" stop-color="#141c25" />
        <stop offset="100%" stop-color="#0d1218" />
      </linearGradient>
      <linearGradient id="accentposter9" x1="0" y1="0" x2="1" y2="1">
        <stop offset="0%" stop-color="#ff5a5a" />
        <stop offset="55%" stop-color="#ff8a00" />
        <stop offset="100%" stop-color="#ffbe55" />
      </linearGradient>
      <linearGradient id="glassA" x1="0" y1="0" x2="1" y2="1">
        <stop offset="0%" stop-color="rgba(255,255,255,.14)" />
        <stop offset="100%" stop-color="rgba(255,255,255,.04)" />
      </linearGradient>
      <linearGradient id="glassB" x1="0" y1="0" x2="1" y2="1">
        <stop offset="0%" stop-color="rgba(255,255,255,.1)" />
        <stop offset="100%" stop-color="rgba(255,255,255,.02)" />
      </linearGradient>
      <radialGradient id="orbA" cx="50%" cy="50%" r="60%">
        <stop offset="0%" stop-color="#ff8a00" stop-opacity=".95" />
        <stop offset="100%" stop-color="#ff5a5a" stop-opacity="0" />
      </radialGradient>
      <linearGradient id="panelLine" x1="0" y1="0" x2="1" y2="0">
        <stop offset="0%" stop-color="#ff5a5a" />
        <stop offset="50%" stop-color="#ff8a00" />
        <stop offset="100%" stop-color="#ffbe55" />
      </linearGradient>
      <pattern id="gridposter9" width="84" height="84" patternUnits="userSpaceOnUse">
        <path d="M84 0H0V84" fill="none" stroke="rgba(255,255,255,.06)" stroke-width="1"/>
      </pattern>
      <filter id="noiseposter9" x="-20%" y="-20%" width="140%" height="140%">
        <feTurbulence type="fractalNoise" baseFrequency="0.8" numOctaves="2" stitchTiles="stitch"/>
        <feColorMatrix type="saturate" values="0"/>
        <feComponentTransfer>
          <feFuncA type="table" tableValues="0 0 .07 .1"/>
        </feComponentTransfer>
      </filter>
      <filter id="blurposter9">
        <feGaussianBlur stdDeviation="70"/>
      </filter>
    </defs>
  <rect width="1260" height="1600" fill="url(#bgposter9)"/>
  <rect width="1260" height="1600" fill="url(#gridposter9)" opacity=".6"/>
  <ellipse cx="972" cy="330" rx="320" ry="240" fill="#ff5a5a" opacity=".16" filter="url(#blurposter9)"/>
  <ellipse cx="300" cy="1180" rx="360" ry="240" fill="#ff8a00" opacity=".12" filter="url(#blurposter9)"/>
  <g>
        <g opacity="0.97">
          <rect x="268" y="338" width="724" height="588" rx="52" fill="url(#glassA)" />
          <rect x="268" y="838" width="724" height="88" rx="44" fill="#ffffff" opacity=".08" />
          <path d="M418 536l252 152l-252 152z" fill="#fff" opacity=".86" />
          <path d="M730 470h168" stroke="#ff8a00" stroke-width="20" stroke-linecap="round" opacity=".82" />
          <path d="M730 534h210" stroke="#fff" stroke-width="20" stroke-linecap="round" opacity=".54" />
          <path d="M730 598h146" stroke="#ffbe55" stroke-width="20" stroke-linecap="round" opacity=".82" />
          <rect x="340" y="860" width="58" height="42" rx="18" fill="#fff" opacity=".14" /><rect x="470" y="860" width="58" height="42" rx="18" fill="#fff" opacity=".14" /><rect x="600" y="860" width="58" height="42" rx="18" fill="#fff" opacity=".14" /><rect x="730" y="860" width="58" height="42" rx="18" fill="#fff" opacity=".14" /><rect x="860" y="860" width="58" height="42" rx="18" fill="#fff" opacity=".14" />
          <circle cx="948" cy="334" r="116" fill="url(#orbA)" opacity=".88" />
        </g></g>
  <rect x="64" y="64" width="320" height="54" rx="27" fill="rgba(255,255,255,.08)" stroke="rgba(255,255,255,.14)"/>
  <text x="102" y="99" fill="#ffffff" font-size="22" font-family="Roboto, Arial, sans-serif" font-weight="700" letter-spacing="4">CAPCUT</text>
  <rect x="920" y="64" width="276" height="54" rx="27" fill="#ff5a5a"/>
  <text x="1058" y="99" fill="#ffffff" text-anchor="middle" font-size="22" font-family="Roboto, Arial, sans-serif" font-weight="800" letter-spacing="3">TRENDING</text>
  <g transform="translate(78 1188)">
    <rect width="1104" height="334" rx="44" fill="rgba(9,12,16,.78)" stroke="rgba(255,255,255,.12)"/>
    <rect x="36" y="36" width="220" height="10" rx="5" fill="url(#accentposter9)"/>
    <text x="40" y="138" fill="#ffffff" font-size="106" font-family="Roboto, Arial, sans-serif" font-weight="900" letter-spacing="-2">CAPCUT</text>
    <text x="40" y="246" fill="#ffffff" font-size="106" font-family="Roboto, Arial, sans-serif" font-weight="900" letter-spacing="-2">PRO</text>
    <text x="40" y="302" fill="rgba(255,255,255,.72)" font-size="28" font-family="Roboto, Arial, sans-serif" font-weight="500">Verified AI marketplace offer with instant delivery styling.</text>
  </g>
  <rect width="1260" height="1600" filter="url(#noiseposter9)" opacity=".18"/>
</svg>