<?xml version="1.0" encoding="UTF-8"?>
<svg xmlns="http://www.w3.org/2000/svg" viewBox="0 0 1260 1600" role="img" aria-label="CAPCUT PRO product cover">
  
    <defs>
      <linearGradient id="bgposter9" x1="0" y1="0" x2="1" y2="1">
        <stop offset="0%" stop-color="#0f141b" />
        <stop offset="56%" stop-color="#141c25" />
        <stop offset="100%" stop-color="#0d1218" />
      </linearGradient>
      <linearGradient id="accentposter9" x1="0" y1="0" x2="1" y2="1">
        <stop offset="0%" stop-color="#ff5a5a" />
        <stop offset="55%" stop-color="#ff8a00" />
        <stop offset="100%" stop-color="#ffbe55" />
      </linearGradient>
      <linearGradient id="glassA" x1="0" y1="0" x2="1" y2="1">
        <stop offset="0%" stop-color="rgba(255,255,255,.14)" />
        <stop offset="100%" stop-color="rgba(255,255,255,.04)" />
      </linearGradient>
      <linearGradient id="glassB" x1="0" y1="0" x2="1" y2="1">
        <stop offset="0%" stop-color="rgba(255,255,255,.1)" />
        <stop offset="100%" stop-color="rgba(255,255,255,.02)" />
      </linearGradient>
      <radialGradient id="orbA" cx="50%" cy="50%" r="60%">
        <stop offset="0%" stop-color="#ff8a00" stop-opacity=".95" />
        <stop offset="100%" stop-color="#ff5a5a" stop-opacity="0" />
      </radialGradient>
      <linearGradient id="panelLine" x1="0" y1="0" x2="1" y2="0">
        <stop offset="0%" stop-color="#ff5a5a" />
        <stop offset="50%" stop-color="#ff8a00" />
        <stop offset="100%" stop-color="#ffbe55" />
      </linearGradient>
      <pattern id="gridposter9" width="84" height="84" patternUnits="userSpaceOnUse">
        <path d="M84 0H0V84" fill="none" stroke="rgba(255,255,255,.06)" stroke-width="1"/>
      </pattern>
      <filter id="noiseposter9" x="-20%" y="-20%" width="140%" height="140%">
        <feTurbulence type="fractalNoise" baseFrequency="0.8" numOctaves="2" stitchTiles="stitch"/>
        <feColorMatrix type="saturate" values="0"/>
        <feComponentTransfer>
          <feFuncA type="table" tableValues="0 0 .07 .1"/>
        </feComponentTransfer>
      </filter>
      <filter id="blurposter9">
        <feGaussianBlur stdDeviation="70"/>
      </filter>
    </defs>
  <rect width="1260" height="1600" fill="url(#bgposter9)"/>
  <rect width="1260" height="1600" fill="url(#gridposter9)" opacity=".44"/>
  <rect width="1260" height="1600" fill="url(#accentposter9)" opacity=".06"/>
  <path d="M0 1260L1260 560V1600H0Z" fill="rgba(255,255,255,.03)"/>
  <ellipse cx="978" cy="270" rx="340" ry="240" fill="#ff5a5a" opacity=".18" filter="url(#blurposter9)"/>
  <ellipse cx="360" cy="1108" rx="430" ry="320" fill="#ff8a00" opacity=".14" filter="url(#blurposter9)"/>
  <ellipse cx="920" cy="1440" rx="360" ry="220" fill="#ffbe55" opacity=".08" filter="url(#blurposter9)"/>
  <g transform="translate(-36 -80) scale(1.08)">
        <g opacity="0.97">
          <rect x="268" y="338" width="724" height="588" rx="52" fill="url(#glassA)" />
          <rect x="268" y="838" width="724" height="88" rx="44" fill="#ffffff" opacity=".08" />
          <path d="M418 536l252 152l-252 152z" fill="#fff" opacity=".86" />
          <path d="M730 470h168" stroke="#ff8a00" stroke-width="20" stroke-linecap="round" opacity=".82" />
          <path d="M730 534h210" stroke="#fff" stroke-width="20" stroke-linecap="round" opacity=".54" />
          <path d="M730 598h146" stroke="#ffbe55" stroke-width="20" stroke-linecap="round" opacity=".82" />
          <rect x="340" y="860" width="58" height="42" rx="18" fill="#fff" opacity=".14" /><rect x="470" y="860" width="58" height="42" rx="18" fill="#fff" opacity=".14" /><rect x="600" y="860" width="58" height="42" rx="18" fill="#fff" opacity=".14" /><rect x="730" y="860" width="58" height="42" rx="18" fill="#fff" opacity=".14" /><rect x="860" y="860" width="58" height="42" rx="18" fill="#fff" opacity=".14" />
          <circle cx="948" cy="334" r="116" fill="url(#orbA)" opacity=".88" />
        </g></g>
  <rect x="42" y="42" width="1176" height="1516" rx="42" fill="none" stroke="rgba(255,255,255,.08)"/>
  <rect x="74" y="74" width="294" height="54" rx="27" fill="rgba(255,255,255,.08)" stroke="rgba(255,255,255,.14)"/>
  <text x="112" y="109" fill="#ffffff" font-size="22" font-family="Roboto, Arial, sans-serif" font-weight="700" letter-spacing="4">CAPCUT</text>
  <rect x="926" y="74" width="260" height="54" rx="27" fill="#ff5a5a"/>
  <text x="1056" y="109" fill="#ffffff" text-anchor="middle" font-size="20" font-family="Roboto, Arial, sans-serif" font-weight="800" letter-spacing="3">TRENDING</text>
  <g transform="translate(74 1128)">
    <rect width="1112" height="370" rx="46" fill="rgba(8,11,16,.84)" stroke="rgba(255,255,255,.12)"/>
    <rect x="38" y="40" width="238" height="12" rx="6" fill="url(#accentposter9)"/>
    <text x="40" y="154" fill="#ffffff" font-size="112" font-family="Roboto, Arial, sans-serif" font-weight="900" letter-spacing="-3">CAPCUT</text>
    <text x="40" y="272" fill="#ffffff" font-size="112" font-family="Roboto, Arial, sans-serif" font-weight="900" letter-spacing="-3">PRO</text>
    <text x="40" y="326" fill="rgba(255,255,255,.72)" font-size="24" font-family="Roboto, Arial, sans-serif" font-weight="700" letter-spacing="3">CAPCUT DIGITAL OFFER</text>
    <text x="40" y="360" fill="rgba(255,255,255,.58)" font-size="28" font-family="Roboto, Arial, sans-serif" font-weight="500">Verified marketplace listing with commercial storefront artwork.</text>
  </g>
  <rect width="1260" height="1600" filter="url(#noiseposter9)" opacity=".18"/>
</svg>