<?xml version="1.0" encoding="UTF-8"?>
<svg xmlns="http://www.w3.org/2000/svg" viewBox="0 0 1800 820" role="img" aria-label="CAPCUT PRO hero art">
  
    <defs>
      <linearGradient id="bghero9" x1="0" y1="0" x2="1" y2="1">
        <stop offset="0%" stop-color="#0f141b" />
        <stop offset="56%" stop-color="#141c25" />
        <stop offset="100%" stop-color="#0d1218" />
      </linearGradient>
      <linearGradient id="accenthero9" x1="0" y1="0" x2="1" y2="1">
        <stop offset="0%" stop-color="#ff5a5a" />
        <stop offset="55%" stop-color="#ff8a00" />
        <stop offset="100%" stop-color="#ffbe55" />
      </linearGradient>
      <linearGradient id="glassA" x1="0" y1="0" x2="1" y2="1">
        <stop offset="0%" stop-color="rgba(255,255,255,.14)" />
        <stop offset="100%" stop-color="rgba(255,255,255,.04)" />
      </linearGradient>
      <linearGradient id="glassB" x1="0" y1="0" x2="1" y2="1">
        <stop offset="0%" stop-color="rgba(255,255,255,.1)" />
        <stop offset="100%" stop-color="rgba(255,255,255,.02)" />
      </linearGradient>
      <radialGradient id="orbA" cx="50%" cy="50%" r="60%">
        <stop offset="0%" stop-color="#ff8a00" stop-opacity=".95" />
        <stop offset="100%" stop-color="#ff5a5a" stop-opacity="0" />
      </radialGradient>
      <linearGradient id="panelLine" x1="0" y1="0" x2="1" y2="0">
        <stop offset="0%" stop-color="#ff5a5a" />
        <stop offset="50%" stop-color="#ff8a00" />
        <stop offset="100%" stop-color="#ffbe55" />
      </linearGradient>
      <pattern id="gridhero9" width="84" height="84" patternUnits="userSpaceOnUse">
        <path d="M84 0H0V84" fill="none" stroke="rgba(255,255,255,.06)" stroke-width="1"/>
      </pattern>
      <filter id="noisehero9" x="-20%" y="-20%" width="140%" height="140%">
        <feTurbulence type="fractalNoise" baseFrequency="0.8" numOctaves="2" stitchTiles="stitch"/>
        <feColorMatrix type="saturate" values="0"/>
        <feComponentTransfer>
          <feFuncA type="table" tableValues="0 0 .07 .1"/>
        </feComponentTransfer>
      </filter>
      <filter id="blurhero9">
        <feGaussianBlur stdDeviation="70"/>
      </filter>
    </defs>
  <rect width="1800" height="820" fill="url(#bghero9)"/>
  <rect width="1800" height="820" fill="url(#gridhero9)" opacity=".36"/>
  <rect width="1800" height="820" fill="url(#fade9)"/>
  <defs>
    <linearGradient id="fade9" x1="0" y1="0" x2="1" y2="0">
      <stop offset="0%" stop-color="rgba(9,12,16,.92)"/>
      <stop offset="42%" stop-color="rgba(9,12,16,.68)"/>
      <stop offset="80%" stop-color="rgba(9,12,16,.12)"/>
      <stop offset="100%" stop-color="rgba(9,12,16,0)"/>
    </linearGradient>
  </defs>
  <ellipse cx="1390" cy="240" rx="350" ry="230" fill="#ff5a5a" opacity=".18" filter="url(#blurhero9)"/>
  <ellipse cx="1250" cy="660" rx="360" ry="220" fill="#ff8a00" opacity=".14" filter="url(#blurhero9)"/>
  <g transform="translate(700 -120) scale(.64)">
    
        <g opacity="0.97">
          <rect x="268" y="338" width="724" height="588" rx="52" fill="url(#glassA)" />
          <rect x="268" y="838" width="724" height="88" rx="44" fill="#ffffff" opacity=".08" />
          <path d="M418 536l252 152l-252 152z" fill="#fff" opacity=".86" />
          <path d="M730 470h168" stroke="#ff8a00" stroke-width="20" stroke-linecap="round" opacity=".82" />
          <path d="M730 534h210" stroke="#fff" stroke-width="20" stroke-linecap="round" opacity=".54" />
          <path d="M730 598h146" stroke="#ffbe55" stroke-width="20" stroke-linecap="round" opacity=".82" />
          <rect x="340" y="860" width="58" height="42" rx="18" fill="#fff" opacity=".14" /><rect x="470" y="860" width="58" height="42" rx="18" fill="#fff" opacity=".14" /><rect x="600" y="860" width="58" height="42" rx="18" fill="#fff" opacity=".14" /><rect x="730" y="860" width="58" height="42" rx="18" fill="#fff" opacity=".14" /><rect x="860" y="860" width="58" height="42" rx="18" fill="#fff" opacity=".14" />
          <circle cx="948" cy="334" r="116" fill="url(#orbA)" opacity=".88" />
        </g>
  </g>
  <rect x="1210" y="126" width="360" height="500" rx="34" fill="rgba(255,255,255,.06)" stroke="rgba(255,255,255,.16)"/>
  <rect x="1240" y="156" width="300" height="14" rx="7" fill="url(#accenthero9)"/>
  <text x="1240" y="240" fill="#ffffff" font-size="56" font-family="Roboto, Arial, sans-serif" font-weight="900">CAPCUT</text>
  <text x="1240" y="300" fill="#ffffff" font-size="56" font-family="Roboto, Arial, sans-serif" font-weight="900">PRO</text>
  <text x="1240" y="352" fill="rgba(255,255,255,.72)" font-size="22" font-family="Roboto, Arial, sans-serif" font-weight="600">CAPCUT marketplace art</text>
  <g transform="translate(1240 404)">
    <rect width="272" height="54" rx="18" fill="rgba(255,255,255,.08)"/>
    <rect y="84" width="214" height="54" rx="18" fill="rgba(255,255,255,.08)"/>
    <rect y="168" width="248" height="54" rx="18" fill="rgba(255,255,255,.08)"/>
  </g>
  <rect width="1800" height="820" filter="url(#noisehero9)" opacity=".14"/>
</svg>