<?xml version="1.0" encoding="UTF-8"?>
<svg xmlns="http://www.w3.org/2000/svg" viewBox="0 0 1800 820" role="img" aria-label="GPT TEAM WORKSPACE hero art">
  
    <defs>
      <linearGradient id="bghero1" x1="0" y1="0" x2="1" y2="1">
        <stop offset="0%" stop-color="#0f141b" />
        <stop offset="56%" stop-color="#141c25" />
        <stop offset="100%" stop-color="#0d1218" />
      </linearGradient>
      <linearGradient id="accenthero1" x1="0" y1="0" x2="1" y2="1">
        <stop offset="0%" stop-color="#ff7a00" />
        <stop offset="55%" stop-color="#ffb347" />
        <stop offset="100%" stop-color="#ffd45f" />
      </linearGradient>
      <linearGradient id="glassA" x1="0" y1="0" x2="1" y2="1">
        <stop offset="0%" stop-color="rgba(255,255,255,.14)" />
        <stop offset="100%" stop-color="rgba(255,255,255,.04)" />
      </linearGradient>
      <linearGradient id="glassB" x1="0" y1="0" x2="1" y2="1">
        <stop offset="0%" stop-color="rgba(255,255,255,.1)" />
        <stop offset="100%" stop-color="rgba(255,255,255,.02)" />
      </linearGradient>
      <radialGradient id="orbA" cx="50%" cy="50%" r="60%">
        <stop offset="0%" stop-color="#ffb347" stop-opacity=".95" />
        <stop offset="100%" stop-color="#ff7a00" stop-opacity="0" />
      </radialGradient>
      <linearGradient id="panelLine" x1="0" y1="0" x2="1" y2="0">
        <stop offset="0%" stop-color="#ff7a00" />
        <stop offset="50%" stop-color="#ffb347" />
        <stop offset="100%" stop-color="#ffd45f" />
      </linearGradient>
      <pattern id="gridhero1" width="84" height="84" patternUnits="userSpaceOnUse">
        <path d="M84 0H0V84" fill="none" stroke="rgba(255,255,255,.06)" stroke-width="1"/>
      </pattern>
      <filter id="noisehero1" x="-20%" y="-20%" width="140%" height="140%">
        <feTurbulence type="fractalNoise" baseFrequency="0.8" numOctaves="2" stitchTiles="stitch"/>
        <feColorMatrix type="saturate" values="0"/>
        <feComponentTransfer>
          <feFuncA type="table" tableValues="0 0 .07 .1"/>
        </feComponentTransfer>
      </filter>
      <filter id="blurhero1">
        <feGaussianBlur stdDeviation="70"/>
      </filter>
    </defs>
  <rect width="1800" height="820" fill="url(#bghero1)"/>
  <rect width="1800" height="820" fill="url(#gridhero1)" opacity=".36"/>
  <rect width="1800" height="820" fill="url(#fade1)"/>
  <defs>
    <linearGradient id="fade1" x1="0" y1="0" x2="1" y2="0">
      <stop offset="0%" stop-color="rgba(8,11,16,.98)"/>
      <stop offset="34%" stop-color="rgba(8,11,16,.88)"/>
      <stop offset="58%" stop-color="rgba(8,11,16,.48)"/>
      <stop offset="82%" stop-color="rgba(8,11,16,.08)"/>
      <stop offset="100%" stop-color="rgba(9,12,16,0)"/>
    </linearGradient>
  </defs>
  <path d="M620 0h1180v820H460c164-96 280-206 348-330c80-146 115-310 112-490z" fill="rgba(255,255,255,.02)"/>
  <ellipse cx="1360" cy="222" rx="360" ry="250" fill="#ff7a00" opacity=".22" filter="url(#blurhero1)"/>
  <ellipse cx="1190" cy="642" rx="420" ry="250" fill="#ffb347" opacity=".16" filter="url(#blurhero1)"/>
  <ellipse cx="1660" cy="500" rx="190" ry="190" fill="#ffd45f" opacity=".1" filter="url(#blurhero1)"/>
  <g transform="translate(760 -80) scale(.72)">
    
        <g opacity="0.95">
          <rect x="250" y="320" width="430" height="520" rx="42" fill="url(#glassA)" stroke="rgba(255,255,255,.18)" />
          <rect x="370" y="250" width="520" height="650" rx="52" fill="url(#glassB)" stroke="rgba(255,255,255,.24)" />
          <circle cx="885" cy="435" r="120" fill="url(#orbA)" opacity="0.92" />
          <path d="M540 530h250" stroke="#fff" stroke-width="24" stroke-linecap="round" opacity=".82" />
          <path d="M540 610h210" stroke="#fff" stroke-width="24" stroke-linecap="round" opacity=".58" />
          <path d="M540 690h280" stroke="#fff" stroke-width="24" stroke-linecap="round" opacity=".76" />
          <path d="M825 420c72 18 130 80 148 157" stroke="#ffd45f" stroke-width="32" stroke-linecap="round" opacity=".78" />
        </g>
  </g>
  <g transform="translate(1180 126) rotate(-5 210 258)">
    <rect width="420" height="516" rx="32" fill="rgba(255,255,255,.06)" stroke="rgba(255,255,255,.18)"/>
    <rect x="28" y="28" width="364" height="460" rx="26" fill="rgba(8,11,16,.74)" stroke="rgba(255,255,255,.08)"/>
    <rect x="60" y="70" width="144" height="10" rx="5" fill="url(#accenthero1)"/>
    <text x="60" y="118" fill="rgba(255,255,255,.78)" font-size="18" font-family="Roboto, Arial, sans-serif" font-weight="700" letter-spacing="4">CHATGPT</text>
    <text x="60" y="214" fill="#ffffff" font-size="58" font-family="Roboto, Arial, sans-serif" font-weight="900" letter-spacing="-2">GPT TEAM</text>
    <text x="60" y="280" fill="#ffffff" font-size="58" font-family="Roboto, Arial, sans-serif" font-weight="900" letter-spacing="-2">WORKSPACE</text>
    <rect x="60" y="332" width="242" height="16" rx="8" fill="rgba(255,255,255,.2)"/>
    <rect x="60" y="372" width="198" height="16" rx="8" fill="rgba(255,255,255,.12)"/>
    <rect x="60" y="412" width="278" height="16" rx="8" fill="rgba(255,255,255,.16)"/>
    <rect x="60" y="452" width="116" height="20" rx="10" fill="#ff7a00" opacity=".84"/>
  </g>
  <path d="M1134 128l166 0" stroke="rgba(255,255,255,.22)" stroke-width="2"/>
  <path d="M1110 164l142 0" stroke="rgba(255,255,255,.14)" stroke-width="2"/>
  <rect width="1800" height="820" filter="url(#noisehero1)" opacity=".14"/>
</svg>