<?xml version="1.0" encoding="UTF-8"?>
<svg xmlns="http://www.w3.org/2000/svg" viewBox="0 0 1800 820" role="img" aria-label="CURSOR MAX hero art">
  
    <defs>
      <linearGradient id="bghero4" x1="0" y1="0" x2="1" y2="1">
        <stop offset="0%" stop-color="#0f141b" />
        <stop offset="56%" stop-color="#141c25" />
        <stop offset="100%" stop-color="#0d1218" />
      </linearGradient>
      <linearGradient id="accenthero4" x1="0" y1="0" x2="1" y2="1">
        <stop offset="0%" stop-color="#00a3ff" />
        <stop offset="55%" stop-color="#6be4ff" />
        <stop offset="100%" stop-color="#ff8a00" />
      </linearGradient>
      <linearGradient id="glassA" x1="0" y1="0" x2="1" y2="1">
        <stop offset="0%" stop-color="rgba(255,255,255,.14)" />
        <stop offset="100%" stop-color="rgba(255,255,255,.04)" />
      </linearGradient>
      <linearGradient id="glassB" x1="0" y1="0" x2="1" y2="1">
        <stop offset="0%" stop-color="rgba(255,255,255,.1)" />
        <stop offset="100%" stop-color="rgba(255,255,255,.02)" />
      </linearGradient>
      <radialGradient id="orbA" cx="50%" cy="50%" r="60%">
        <stop offset="0%" stop-color="#6be4ff" stop-opacity=".95" />
        <stop offset="100%" stop-color="#00a3ff" stop-opacity="0" />
      </radialGradient>
      <linearGradient id="panelLine" x1="0" y1="0" x2="1" y2="0">
        <stop offset="0%" stop-color="#00a3ff" />
        <stop offset="50%" stop-color="#6be4ff" />
        <stop offset="100%" stop-color="#ff8a00" />
      </linearGradient>
      <pattern id="gridhero4" width="84" height="84" patternUnits="userSpaceOnUse">
        <path d="M84 0H0V84" fill="none" stroke="rgba(255,255,255,.06)" stroke-width="1"/>
      </pattern>
      <filter id="noisehero4" x="-20%" y="-20%" width="140%" height="140%">
        <feTurbulence type="fractalNoise" baseFrequency="0.8" numOctaves="2" stitchTiles="stitch"/>
        <feColorMatrix type="saturate" values="0"/>
        <feComponentTransfer>
          <feFuncA type="table" tableValues="0 0 .07 .1"/>
        </feComponentTransfer>
      </filter>
      <filter id="blurhero4">
        <feGaussianBlur stdDeviation="70"/>
      </filter>
    </defs>
  <rect width="1800" height="820" fill="url(#bghero4)"/>
  <rect width="1800" height="820" fill="url(#gridhero4)" opacity=".36"/>
  <rect width="1800" height="820" fill="url(#fade4)"/>
  <defs>
    <linearGradient id="fade4" x1="0" y1="0" x2="1" y2="0">
      <stop offset="0%" stop-color="rgba(9,12,16,.92)"/>
      <stop offset="42%" stop-color="rgba(9,12,16,.68)"/>
      <stop offset="80%" stop-color="rgba(9,12,16,.12)"/>
      <stop offset="100%" stop-color="rgba(9,12,16,0)"/>
    </linearGradient>
  </defs>
  <ellipse cx="1390" cy="240" rx="350" ry="230" fill="#00a3ff" opacity=".18" filter="url(#blurhero4)"/>
  <ellipse cx="1250" cy="660" rx="360" ry="220" fill="#6be4ff" opacity=".14" filter="url(#blurhero4)"/>
  <g transform="translate(700 -120) scale(.64)">
    
        <g opacity="0.96">
          <rect x="248" y="270" width="722" height="712" rx="48" fill="url(#glassA)" />
          <rect x="248" y="270" width="722" height="82" rx="48" fill="#fff" opacity="0.08" />
          <circle cx="330" cy="312" r="12" fill="#00a3ff" />
          <circle cx="374" cy="312" r="12" fill="#6be4ff" />
          <circle cx="418" cy="312" r="12" fill="#ff8a00" />
          <path d="M418 570l-98 92l98 92" stroke="#fff" stroke-width="34" stroke-linecap="round" stroke-linejoin="round" opacity=".9" />
          <path d="M796 570l98 92l-98 92" stroke="#ff8a00" stroke-width="34" stroke-linecap="round" stroke-linejoin="round" opacity=".9" />
          <path d="M580 504l-78 314" stroke="#6be4ff" stroke-width="26" stroke-linecap="round" opacity=".92" />
          <path d="M386 438h298" stroke="#fff" stroke-width="18" stroke-linecap="round" opacity=".3" />
          <path d="M386 470h220" stroke="#fff" stroke-width="18" stroke-linecap="round" opacity=".18" />
        </g>
  </g>
  <rect x="1210" y="126" width="360" height="500" rx="34" fill="rgba(255,255,255,.06)" stroke="rgba(255,255,255,.16)"/>
  <rect x="1240" y="156" width="300" height="14" rx="7" fill="url(#accenthero4)"/>
  <text x="1240" y="240" fill="#ffffff" font-size="56" font-family="Roboto, Arial, sans-serif" font-weight="900">CURSOR</text>
  <text x="1240" y="300" fill="#ffffff" font-size="56" font-family="Roboto, Arial, sans-serif" font-weight="900">MAX</text>
  <text x="1240" y="352" fill="rgba(255,255,255,.72)" font-size="22" font-family="Roboto, Arial, sans-serif" font-weight="600">CURSOR marketplace art</text>
  <g transform="translate(1240 404)">
    <rect width="272" height="54" rx="18" fill="rgba(255,255,255,.08)"/>
    <rect y="84" width="214" height="54" rx="18" fill="rgba(255,255,255,.08)"/>
    <rect y="168" width="248" height="54" rx="18" fill="rgba(255,255,255,.08)"/>
  </g>
  <rect width="1800" height="820" filter="url(#noisehero4)" opacity=".14"/>
</svg>