<?xml version="1.0" encoding="UTF-8"?>
<svg xmlns="http://www.w3.org/2000/svg" viewBox="0 0 1800 820" role="img" aria-label="RESEARCH TEAM hero art">
  
    <defs>
      <linearGradient id="bghero6" x1="0" y1="0" x2="1" y2="1">
        <stop offset="0%" stop-color="#0f141b" />
        <stop offset="56%" stop-color="#141c25" />
        <stop offset="100%" stop-color="#0d1218" />
      </linearGradient>
      <linearGradient id="accenthero6" x1="0" y1="0" x2="1" y2="1">
        <stop offset="0%" stop-color="#00c2ff" />
        <stop offset="55%" stop-color="#00f0d7" />
        <stop offset="100%" stop-color="#ffe066" />
      </linearGradient>
      <linearGradient id="glassA" x1="0" y1="0" x2="1" y2="1">
        <stop offset="0%" stop-color="rgba(255,255,255,.14)" />
        <stop offset="100%" stop-color="rgba(255,255,255,.04)" />
      </linearGradient>
      <linearGradient id="glassB" x1="0" y1="0" x2="1" y2="1">
        <stop offset="0%" stop-color="rgba(255,255,255,.1)" />
        <stop offset="100%" stop-color="rgba(255,255,255,.02)" />
      </linearGradient>
      <radialGradient id="orbA" cx="50%" cy="50%" r="60%">
        <stop offset="0%" stop-color="#00f0d7" stop-opacity=".95" />
        <stop offset="100%" stop-color="#00c2ff" stop-opacity="0" />
      </radialGradient>
      <linearGradient id="panelLine" x1="0" y1="0" x2="1" y2="0">
        <stop offset="0%" stop-color="#00c2ff" />
        <stop offset="50%" stop-color="#00f0d7" />
        <stop offset="100%" stop-color="#ffe066" />
      </linearGradient>
      <pattern id="gridhero6" width="84" height="84" patternUnits="userSpaceOnUse">
        <path d="M84 0H0V84" fill="none" stroke="rgba(255,255,255,.06)" stroke-width="1"/>
      </pattern>
      <filter id="noisehero6" x="-20%" y="-20%" width="140%" height="140%">
        <feTurbulence type="fractalNoise" baseFrequency="0.8" numOctaves="2" stitchTiles="stitch"/>
        <feColorMatrix type="saturate" values="0"/>
        <feComponentTransfer>
          <feFuncA type="table" tableValues="0 0 .07 .1"/>
        </feComponentTransfer>
      </filter>
      <filter id="blurhero6">
        <feGaussianBlur stdDeviation="70"/>
      </filter>
    </defs>
  <rect width="1800" height="820" fill="url(#bghero6)"/>
  <rect width="1800" height="820" fill="url(#gridhero6)" opacity=".36"/>
  <rect width="1800" height="820" fill="url(#fade6)"/>
  <defs>
    <linearGradient id="fade6" x1="0" y1="0" x2="1" y2="0">
      <stop offset="0%" stop-color="rgba(9,12,16,.92)"/>
      <stop offset="42%" stop-color="rgba(9,12,16,.68)"/>
      <stop offset="80%" stop-color="rgba(9,12,16,.12)"/>
      <stop offset="100%" stop-color="rgba(9,12,16,0)"/>
    </linearGradient>
  </defs>
  <ellipse cx="1390" cy="240" rx="350" ry="230" fill="#00c2ff" opacity=".18" filter="url(#blurhero6)"/>
  <ellipse cx="1250" cy="660" rx="360" ry="220" fill="#00f0d7" opacity=".14" filter="url(#blurhero6)"/>
  <g transform="translate(700 -120) scale(.64)">
    
        <g opacity="0.98">
          <path d="M298 806c80-96 180-165 301-208c130-46 252-53 364-20" stroke="#fff" stroke-width="14" opacity=".26" fill="none" />
          <path d="M322 520c78-70 170-118 276-145c143-36 284-24 420 38" stroke="#00c2ff" stroke-width="18" opacity=".46" fill="none" />
          <circle cx="312" cy="842" r="42" fill="#00c2ff" opacity="0.92" /><circle cx="312" cy="842" r="18" fill="#fff" opacity="0.92" /><circle cx="422" cy="708" r="42" fill="#00f0d7" opacity="0.92" /><circle cx="422" cy="708" r="18" fill="#fff" opacity="0.92" /><circle cx="566" cy="616" r="42" fill="#ffe066" opacity="0.92" /><circle cx="566" cy="616" r="18" fill="#fff" opacity="0.92" /><circle cx="716" cy="578" r="42" fill="#00c2ff" opacity="0.92" /><circle cx="716" cy="578" r="18" fill="#fff" opacity="0.92" /><circle cx="860" cy="612" r="42" fill="#00f0d7" opacity="0.92" /><circle cx="860" cy="612" r="18" fill="#fff" opacity="0.92" /><circle cx="948" cy="734" r="42" fill="#ffe066" opacity="0.92" /><circle cx="948" cy="734" r="18" fill="#fff" opacity="0.92" />
          <circle cx="920" cy="360" r="152" fill="url(#orbA)" opacity=".9" />
        </g>
  </g>
  <rect x="1210" y="126" width="360" height="500" rx="34" fill="rgba(255,255,255,.06)" stroke="rgba(255,255,255,.16)"/>
  <rect x="1240" y="156" width="300" height="14" rx="7" fill="url(#accenthero6)"/>
  <text x="1240" y="240" fill="#ffffff" font-size="56" font-family="Roboto, Arial, sans-serif" font-weight="900">RESEARCH</text>
  <text x="1240" y="300" fill="#ffffff" font-size="56" font-family="Roboto, Arial, sans-serif" font-weight="900">TEAM</text>
  <text x="1240" y="352" fill="rgba(255,255,255,.72)" font-size="22" font-family="Roboto, Arial, sans-serif" font-weight="600">PERPLEXITY marketplace art</text>
  <g transform="translate(1240 404)">
    <rect width="272" height="54" rx="18" fill="rgba(255,255,255,.08)"/>
    <rect y="84" width="214" height="54" rx="18" fill="rgba(255,255,255,.08)"/>
    <rect y="168" width="248" height="54" rx="18" fill="rgba(255,255,255,.08)"/>
  </g>
  <rect width="1800" height="820" filter="url(#noisehero6)" opacity=".14"/>
</svg>