<?xml version="1.0" encoding="UTF-8"?>
<svg xmlns="http://www.w3.org/2000/svg" viewBox="0 0 1260 1600" role="img" aria-label="RESEARCH TEAM product cover">
  
    <defs>
      <linearGradient id="bgposter6" x1="0" y1="0" x2="1" y2="1">
        <stop offset="0%" stop-color="#0f141b" />
        <stop offset="56%" stop-color="#141c25" />
        <stop offset="100%" stop-color="#0d1218" />
      </linearGradient>
      <linearGradient id="accentposter6" x1="0" y1="0" x2="1" y2="1">
        <stop offset="0%" stop-color="#00c2ff" />
        <stop offset="55%" stop-color="#00f0d7" />
        <stop offset="100%" stop-color="#ffe066" />
      </linearGradient>
      <linearGradient id="glassA" x1="0" y1="0" x2="1" y2="1">
        <stop offset="0%" stop-color="rgba(255,255,255,.14)" />
        <stop offset="100%" stop-color="rgba(255,255,255,.04)" />
      </linearGradient>
      <linearGradient id="glassB" x1="0" y1="0" x2="1" y2="1">
        <stop offset="0%" stop-color="rgba(255,255,255,.1)" />
        <stop offset="100%" stop-color="rgba(255,255,255,.02)" />
      </linearGradient>
      <radialGradient id="orbA" cx="50%" cy="50%" r="60%">
        <stop offset="0%" stop-color="#00f0d7" stop-opacity=".95" />
        <stop offset="100%" stop-color="#00c2ff" stop-opacity="0" />
      </radialGradient>
      <linearGradient id="panelLine" x1="0" y1="0" x2="1" y2="0">
        <stop offset="0%" stop-color="#00c2ff" />
        <stop offset="50%" stop-color="#00f0d7" />
        <stop offset="100%" stop-color="#ffe066" />
      </linearGradient>
      <pattern id="gridposter6" width="84" height="84" patternUnits="userSpaceOnUse">
        <path d="M84 0H0V84" fill="none" stroke="rgba(255,255,255,.06)" stroke-width="1"/>
      </pattern>
      <filter id="noiseposter6" x="-20%" y="-20%" width="140%" height="140%">
        <feTurbulence type="fractalNoise" baseFrequency="0.8" numOctaves="2" stitchTiles="stitch"/>
        <feColorMatrix type="saturate" values="0"/>
        <feComponentTransfer>
          <feFuncA type="table" tableValues="0 0 .07 .1"/>
        </feComponentTransfer>
      </filter>
      <filter id="blurposter6">
        <feGaussianBlur stdDeviation="70"/>
      </filter>
    </defs>
  <rect width="1260" height="1600" fill="url(#bgposter6)"/>
  <rect width="1260" height="1600" fill="url(#gridposter6)" opacity=".44"/>
  <rect width="1260" height="1600" fill="url(#accentposter6)" opacity=".06"/>
  <path d="M0 1260L1260 560V1600H0Z" fill="rgba(255,255,255,.03)"/>
  <ellipse cx="978" cy="270" rx="340" ry="240" fill="#00c2ff" opacity=".18" filter="url(#blurposter6)"/>
  <ellipse cx="360" cy="1108" rx="430" ry="320" fill="#00f0d7" opacity=".14" filter="url(#blurposter6)"/>
  <ellipse cx="920" cy="1440" rx="360" ry="220" fill="#ffe066" opacity=".08" filter="url(#blurposter6)"/>
  <g transform="translate(-36 -80) scale(1.08)">
        <g opacity="0.98">
          <path d="M298 806c80-96 180-165 301-208c130-46 252-53 364-20" stroke="#fff" stroke-width="14" opacity=".26" fill="none" />
          <path d="M322 520c78-70 170-118 276-145c143-36 284-24 420 38" stroke="#00c2ff" stroke-width="18" opacity=".46" fill="none" />
          <circle cx="312" cy="842" r="42" fill="#00c2ff" opacity="0.92" /><circle cx="312" cy="842" r="18" fill="#fff" opacity="0.92" /><circle cx="422" cy="708" r="42" fill="#00f0d7" opacity="0.92" /><circle cx="422" cy="708" r="18" fill="#fff" opacity="0.92" /><circle cx="566" cy="616" r="42" fill="#ffe066" opacity="0.92" /><circle cx="566" cy="616" r="18" fill="#fff" opacity="0.92" /><circle cx="716" cy="578" r="42" fill="#00c2ff" opacity="0.92" /><circle cx="716" cy="578" r="18" fill="#fff" opacity="0.92" /><circle cx="860" cy="612" r="42" fill="#00f0d7" opacity="0.92" /><circle cx="860" cy="612" r="18" fill="#fff" opacity="0.92" /><circle cx="948" cy="734" r="42" fill="#ffe066" opacity="0.92" /><circle cx="948" cy="734" r="18" fill="#fff" opacity="0.92" />
          <circle cx="920" cy="360" r="152" fill="url(#orbA)" opacity=".9" />
        </g></g>
  <rect x="42" y="42" width="1176" height="1516" rx="42" fill="none" stroke="rgba(255,255,255,.08)"/>
  <rect x="74" y="74" width="294" height="54" rx="27" fill="rgba(255,255,255,.08)" stroke="rgba(255,255,255,.14)"/>
  <text x="112" y="109" fill="#ffffff" font-size="22" font-family="Roboto, Arial, sans-serif" font-weight="700" letter-spacing="4">PERPLEXITY</text>
  <rect x="926" y="74" width="260" height="54" rx="27" fill="#00c2ff"/>
  <text x="1056" y="109" fill="#ffffff" text-anchor="middle" font-size="20" font-family="Roboto, Arial, sans-serif" font-weight="800" letter-spacing="3">DAILY DEAL</text>
  <g transform="translate(74 1128)">
    <rect width="1112" height="370" rx="46" fill="rgba(8,11,16,.84)" stroke="rgba(255,255,255,.12)"/>
    <rect x="38" y="40" width="238" height="12" rx="6" fill="url(#accentposter6)"/>
    <text x="40" y="154" fill="#ffffff" font-size="112" font-family="Roboto, Arial, sans-serif" font-weight="900" letter-spacing="-3">RESEARCH</text>
    <text x="40" y="272" fill="#ffffff" font-size="112" font-family="Roboto, Arial, sans-serif" font-weight="900" letter-spacing="-3">TEAM</text>
    <text x="40" y="326" fill="rgba(255,255,255,.72)" font-size="24" font-family="Roboto, Arial, sans-serif" font-weight="700" letter-spacing="3">PERPLEXITY DIGITAL OFFER</text>
    <text x="40" y="360" fill="rgba(255,255,255,.58)" font-size="28" font-family="Roboto, Arial, sans-serif" font-weight="500">Verified marketplace listing with commercial storefront artwork.</text>
  </g>
  <rect width="1260" height="1600" filter="url(#noiseposter6)" opacity=".18"/>
</svg>